<svg xmlns="http://www.w3.org/2000/svg" xmlns:xlink="http://www.w3.org/1999/xlink" width="24" height="24" viewBox="0 0 24 24"><defs><path id="ic_action_dislike-a" d="M16,2 L11.293,2 L8,2 L5.771,2 C4.893,2 4.117,2.573 3.859,3.412 L1.09,12.412 C0.694,13.698 1.656,15 3.001,15 L7,15 L7.41,15 C8.13,15 8.58,15.76 8.23,16.39 L8.08,16.66 C7.54,17.65 7.23,18.76 7.28,19.88 C7.32,20.63 7.46,21.37 7.7,22.09 C7.88,22.63 8.39,23 8.96,23 C9.57,23 10.1,22.58 10.25,21.99 L10.61,20.55 C10.87,19.53 11.34,18.58 12,17.76 L14.29,14.88 C14.74,14.33 15.42,14 16.13,14 C16.61,14 17,13.61 17,13.13 L17,3 C17,2.45 16.55,2 16,2 Z"/></defs><g fill-rule="evenodd" fill="transparent"><rect width="24" height="24"/><path fill="#fff" d="M19,1 L22,1 C22.552,1 23,1.448 23,2 L23,14 C23,14.552 22.552,15 22,15 L19,15 C18.448,15 18,14.552 18,14 L18,2 C18,1.448 18.448,1 19,1 Z" opacity=".5"/><use xlink:href="#ic_action_dislike-a" fill="#fff"/></g></svg>