<svg xmlns="http://www.w3.org/2000/svg" xmlns:xlink="http://www.w3.org/1999/xlink" width="24" height="24" viewBox="0 0 24 24"><defs><path id="ic_playback_playqueue-a" d="M22,20 C22,20.552 21.552,21 21,21 L3,21 C2.448,21 2,20.552 2,20 C2,19.448 2.448,19 3,19 L21,19 C21.552,19 22,19.448 22,20 Z M3,5 L16,5 L21,5 C21.552,5 22,4.552 22,4 C22,3.448 21.552,3 21,3 L3,3 C2.448,3 2,3.448 2,4 C2,4.552 2.448,5 3,5 Z M21,7 L13,7 C12.448,7 12,7.448 12,8 C12,8.552 12.448,9 13,9 L21,9 C21.552,9 22,8.552 22,8 C22,7.448 21.552,7 21,7 Z M21,11 L13,11 C12.448,11 12,11.448 12,12 C12,12.552 12.448,13 13,13 L21,13 C21.552,13 22,12.552 22,12 C22,11.448 21.552,11 21,11 Z M21,15 L13,15 C12.448,15 12,15.448 12,16 C12,16.552 12.448,17 13,17 L21,17 C21.552,17 22,16.552 22,16 C22,15.448 21.552,15 21,15 Z M2.26,16.938 C2.335,16.979 2.417,17 2.5,17 C2.594,17 2.688,16.974 2.771,16.921 L9.771,12.421 C9.914,12.329 10,12.17 10,12 C10,11.83 9.914,11.671 9.771,11.58 L2.771,7.08 C2.616,6.979 2.421,6.974 2.26,7.061 C2.1,7.149 2,7.317 2,7.5 L2,16.5 C2,16.683 2.1,16.852 2.26,16.938 Z"/></defs><g fill-rule="evenodd" fill="transparent"><rect width="24" height="24"/><use fill-rule="nonzero" xlink:href="#ic_playback_playqueue-a" fill="#fff"/></g></svg>